# xmcd
#
# Track frame offsets:
#	150
#	20357
#	38134
#	60360
#	78228
#	95127
#	111072
#	132286
#	153343
#	170706
#	187561
#
# Disc length: 2674 seconds
#
# Revision: 0
# Processed by: cddbd v1.5.2PL0 Copyright (c) Steve Scherf et al.
# Submitted via: EasyCDDAExtractor 12.0.0.1
#
DISCID=7e0a700b
DTITLE=Jean Luc Leroux - Country Lagoon
DYEAR=1900
DGENRE=
TTITLE0=Plage et musique
TTITLE1=Sur la route
TTITLE2=Retour au départ
TTITLE3=Cigarette et café
TTITLE4=Hier Aujourd'hui
TTITLE5=Plus d'une jolie fille sur mon île
TTITLE6=La lune noire
TTITLE7=Si j'étais
TTITLE8=Voyage de rêves
TTITLE9=Elle m'a fait signe
TTITLE10=Croquettes danse
EXTD=
EXTT0=
EXTT1=
EXTT2=
EXTT3=
EXTT4=
EXTT5=
EXTT6=
EXTT7=
EXTT8=
EXTT9=
EXTT10=
PLAYORDER=
